<svg width="184" height="66" fill="none" version="1.1" viewBox="0 0 184 66" xmlns="http://www.w3.org/2000/svg"><g fill="#FF0125"><path d="M0 65.8423H59.0015L10.0723 32.835L59.0015 0H0V65.8423Z"/><path d="m100.45 52.572h-7.5709v-18.928c0-0.5196-0.1021-1.0114-0.3062-1.4753-0.1856-0.4639-0.4546-0.8722-0.8072-1.2247-0.3526-0.3526-0.7608-0.6217-1.2248-0.8072-0.4639-0.2042-0.9556-0.3062-1.4752-0.3062s-1.0114 0.102-1.4753 0.3062c-0.4453 0.1855-0.8443 0.4546-1.1969 0.8072-0.334 0.3525-0.6031 0.7608-0.8072 1.2247-0.1856 0.4639-0.2784 0.9557-0.2784 1.4753v18.928h-7.599v-18.928c0-0.5196-0.102-1.0114-0.3061-1.4753-0.1856-0.4639-0.4547-0.8722-0.8073-1.2247-0.3525-0.3526-0.7608-0.6217-1.2247-0.8072-0.4639-0.2042-0.9557-0.3062-1.4753-0.3062s-1.0113 0.102-1.4752 0.3062c-0.4454 0.1855-0.8444 0.4546-1.1969 0.8072-0.3341 0.3525-0.6031 0.7608-0.8073 1.2247-0.1855 0.4639-0.2783 0.9557-0.2783 1.4753v18.928h-7.599v-29.812h1.8371l2.0598 2.2825c1.0577-0.8907 2.2175-1.5773 3.4794-2.0598 1.2804-0.501 2.6072-0.7515 3.9804-0.7515 1.3918 0 2.7464 0.2598 4.064 0.7794 1.336 0.5195 2.5051 1.4195 3.5072 2.7 0.4639-0.631 0.9928-1.1691 1.5866-1.6145 0.5938-0.4453 1.2155-0.8072 1.8649-1.0855 0.6681-0.2784 1.3547-0.4732 2.0598-0.5846 0.7052-0.1299 1.4011-0.1948 2.0877-0.1948 1.5773 0 3.0526 0.2969 4.4258 0.8907 1.3917 0.5938 2.5979 1.4103 3.6185 2.4495 1.0392 1.0206 1.8557 2.2268 2.4495 3.6186 0.5935 1.3917 0.8905 2.8763 0.8905 4.4536v18.928z"/><path d="m117.88 45.279c0.297 0.0927 0.594 0.1577 0.891 0.1948 0.297 0.0186 0.594 0.0278 0.89 0.0278 0.743 0 1.457-0.102 2.144-0.3061 0.686-0.2042 1.327-0.4918 1.92-0.8629 0.613-0.3897 1.151-0.8536 1.615-1.3918 0.482-0.5567 0.872-1.1691 1.169-1.8371l5.567 5.5949c-0.705 1.002-1.522 1.902-2.45 2.7-0.909 0.7979-1.902 1.4752-2.978 2.0319-1.058 0.5567-2.18 0.9743-3.368 1.2526-1.169 0.2969-2.375 0.4454-3.619 0.4454-2.096 0-4.073-0.3897-5.928-1.1691-1.838-0.7794-3.452-1.865-4.844-3.2567-1.373-1.3918-2.458-3.0433-3.256-4.9547-0.798-1.9299-1.197-4.0453-1.197-6.3464 0-2.3567 0.399-4.5093 1.197-6.4577 0.798-1.9485 1.883-3.6093 3.256-4.9825 1.392-1.3732 3.006-2.4402 4.844-3.2011 1.855-0.7608 3.832-1.1412 5.928-1.1412 1.244 0 2.459 0.1485 3.647 0.4454s2.31 0.7237 3.368 1.2804c1.076 0.5567 2.078 1.2433 3.006 2.0598 0.928 0.7979 1.744 1.6979 2.45 2.7l-14.252 17.174zm3.897-15.671c-0.353-0.1299-0.705-0.2134-1.058-0.2505-0.334-0.0371-0.686-0.0557-1.058-0.0557-1.039 0-2.022 0.1948-2.95 0.5845-0.909 0.3712-1.707 0.9093-2.394 1.6145-0.668 0.7051-1.197 1.5587-1.586 2.5608-0.39 0.9835-0.585 2.0969-0.585 3.3402 0 0.2784 9e-3 0.5938 0.028 0.9464 0.037 0.3526 0.083 0.7145 0.139 1.0856 0.074 0.3526 0.158 0.6959 0.251 1.0299 0.092 0.334 0.213 0.6309 0.361 0.8907l8.852-11.746z"/><path d="m144.94 14.66c0 0.7052-0.139 1.3639-0.418 1.9763-0.26 0.6124-0.621 1.1505-1.085 1.6144-0.464 0.4454-1.012 0.8073-1.643 1.0856-0.612 0.2598-1.271 0.3897-1.976 0.3897s-1.373-0.1299-2.004-0.3897c-0.612-0.2783-1.151-0.6402-1.614-1.0856-0.446-0.4639-0.808-1.002-1.086-1.6144-0.26-0.6124-0.39-1.2711-0.39-1.9763 0-0.6866 0.13-1.3361 0.39-1.9484 0.278-0.631 0.64-1.1691 1.086-1.6145 0.463-0.4639 1.002-0.8258 1.614-1.0855 0.631-0.2784 1.299-0.41758 2.004-0.41758s1.364 0.13918 1.976 0.41758c0.631 0.2597 1.179 0.6216 1.643 1.0855 0.464 0.4454 0.825 0.9835 1.085 1.6145 0.279 0.6123 0.418 1.2618 0.418 1.9484zm-1.308 37.912h-7.655v-29.812h7.655v29.812z"/><path d="m164.39 52.572c-1.838 0-3.563-0.3433-5.178-1.0299-1.614-0.7052-3.034-1.6609-4.259-2.867-1.206-1.2248-2.161-2.6444-2.867-4.2588-0.686-1.6145-1.029-3.3402-1.029-5.1774v-8.8515h-3.703v-7.5712h3.703v-11.913h7.571v11.913h11.523v7.5712h-11.523v8.8515c0 0.798 0.148 1.5495 0.445 2.2547 0.297 0.6866 0.705 1.2897 1.225 1.8093 0.519 0.5196 1.132 0.9371 1.837 1.2525 0.705 0.297 1.457 0.4454 2.255 0.4454h5.761v7.5712h-5.761z"/><path d="m183.4 14.66c0 0.7052-0.139 1.3639-0.418 1.9763-0.259 0.6124-0.621 1.1505-1.085 1.6144-0.464 0.4454-1.012 0.8073-1.642 1.0856-0.613 0.2598-1.272 0.3897-1.977 0.3897s-1.373-0.1299-2.004-0.3897c-0.612-0.2783-1.15-0.6402-1.614-1.0856-0.446-0.4639-0.808-1.002-1.086-1.6144-0.26-0.6124-0.39-1.2711-0.39-1.9763 0-0.6866 0.13-1.3361 0.39-1.9484 0.278-0.631 0.64-1.1691 1.086-1.6145 0.464-0.4639 1.002-0.8258 1.614-1.0855 0.631-0.2784 1.299-0.41758 2.004-0.41758s1.364 0.13918 1.977 0.41758c0.63 0.2597 1.178 0.6216 1.642 1.0855 0.464 0.4454 0.826 0.9835 1.085 1.6145 0.279 0.6123 0.418 1.2618 0.418 1.9484zm-1.308 37.912h-7.655v-29.812h7.655v29.812z"/></g></svg>
